version = 1
nColumns = 19
nRows = 10
inDegrees = yes
endheader 
time	r_ground_force_vx	r_ground_force_vy	r_ground_force_vz	r_ground_force_px	r_ground_force_py	r_ground_force_pz	l_ground_force_vx	l_ground_force_vy	l_ground_force_vz	l_ground_force_px	l_ground_force_py	l_ground_force_pz	r_ground_torque_x	r_ground_torque_y	r_ground_torque_z	l_ground_torque_x	l_ground_torque_y	l_ground_torque_z	
          0.28115918	          0.00000000	          0.00000000	          0.00000000	          0.00000000	          0.00000000	          0.00000000	       -419.84203887	        373.94531184	        -53.06686741	          1.13537407	          0.00000000	         -0.05066894	          0.00000000	          0.00000000	          0.00000000	          0.00000000	          0.50465471	          0.00000000	
          0.28203106	          0.00000000	          0.00000000	          0.00000000	          0.00000000	          0.00000000	          0.00000000	       -436.56790228	        417.98259649	         52.54594643	          0.19544248	          0.00000000	          0.05036729	          0.00000000	          0.00000000	          0.00000000	          0.00000000	         -0.69060139	          0.00000000	
          0.28478585	          0.00000000	          0.00000000	          0.00000000	          0.00000000	          0.00000000	          0.00000000	       -314.62446322	        537.45073532	         36.77918530	          0.18103203	          0.00000000	          0.05006175	          0.00000000	          0.00000000	          0.00000000	          0.00000000	         -3.39641787	          0.00000000	
          0.28678237	          0.00000000	          0.00000000	          0.00000000	          0.00000000	          0.00000000	          0.00000000	       -134.81872672	        603.79086240	         22.38185692	          0.16722024	          0.00000000	          0.05047658	          0.00000000	          0.00000000	          0.00000000	          0.00000000	         -5.69920064	          0.00000000	
          0.28765425	          0.00000000	          0.00000000	          0.00000000	          0.00000000	          0.00000000	          0.00000000	       -136.94729136	        647.80364000	         17.57777406	          0.16242036	          0.00000000	          0.05062507	          0.00000000	          0.00000000	          0.00000000	          0.00000000	         -6.71961932	          0.00000000	
          0.29040903	          0.00000000	          0.00000000	          0.00000000	          0.00000000	          0.00000000	          0.00000000	       -130.99120300	        832.18641998	          1.99097272	          0.15450059	          0.00000000	          0.05067754	          0.00000000	          0.00000000	          0.00000000	          0.00000000	         -7.66331137	          0.00000000	
          0.29240555	          0.00000000	          0.00000000	          0.00000000	          0.00000000	          0.00000000	          0.00000000	       -135.60316325	        971.03685432	         -1.05853930	          0.15071514	          0.00000000	          0.05066828	          0.00000000	          0.00000000	          0.00000000	          0.00000000	         -6.78017414	          0.00000000	
          0.29327743	          0.00000000	          0.00000000	          0.00000000	          0.00000000	          0.00000000	          0.00000000	       -138.21824854	       1024.11163279	         -0.91040613	          0.14884863	          0.00000000	          0.05069746	          0.00000000	          0.00000000	          0.00000000	          0.00000000	         -6.35850621	          0.00000000	
          0.29603222	          0.00000000	          0.00000000	          0.00000000	          0.00000000	          0.00000000	          0.00000000	       -131.62935854	       1173.47317820	         -2.87773025	          0.14427330	          0.00000000	          0.05074414	          0.00000000	          0.00000000	          0.00000000	          0.00000000	         -5.66812492	          0.00000000	
          0.29802873	          0.00000000	          0.00000000	          0.00000000	          0.00000000	          0.00000000	          0.00000000	       -123.36809192	       1262.62928394	         -5.08251856	          0.14216021	          0.00000000	          0.05073160	          0.00000000	          0.00000000	          0.00000000	          0.00000000	         -5.59757709	          0.00000000	
